<mxfile host="app.diagrams.net" modified="2024-04-08T09:09:22.960Z" agent="Mozilla/5.0 (X11; Ubuntu; Linux x86_64; rv:124.0) Gecko/20100101 Firefox/124.0" etag="qsb_IVTsy8x51N6L8W8P" version="24.2.2" type="github">
  <diagram name="Page-1" id="VTxbm6ZFIvx-NwLl5isk">
    <mxGraphModel dx="1364" dy="766" grid="1" gridSize="10" guides="1" tooltips="1" connect="1" arrows="1" fold="1" page="1" pageScale="1" pageWidth="827" pageHeight="1169" math="0" shadow="0">
      <root>
        <mxCell id="0" />
        <mxCell id="1" parent="0" />
      </root>
    </mxGraphModel>
  </diagram>
</mxfile>
